<?xml version="1.0" encoding="utf-8"?>
<!DOCTYPE svg PUBLIC "-//W3C//DTD SVG 1.1//EN" "http://www.w3.org/Graphics/SVG/1.1/DTD/svg11.dtd">
<svg version="1.1" id="图形" xmlns="http://www.w3.org/2000/svg" xmlns:xlink="http://www.w3.org/1999/xlink" x="0px" y="0px" width="1024px" height="1024px" viewBox="0 0 1024 1024" enable-background="new 0 0 1024 1024" xml:space="preserve">
  <path fill="#ffffff" d="M218.88 484.672l87.68-63.744c4.416-4.416 11.52-4.416 15.936 0l2.624 2.624 66.048-66.048 51.84 51.84-66.048 65.984 2.624 2.624c4.416 4.416 4.416 11.52 0 15.936l-63.744 87.68-127.168 87.296c-4.416 4.416-11.52 4.416-15.936 0l-9.728-9.728-31.424-31.36c-4.416-4.416-4.416-11.52 0-15.936l87.296-127.168zM909.824 61.888l-206.912 206.912-169.408-169.472 206.784-206.848c11.904-11.968 27.776-18.56 44.608-18.56s32.704 6.656 44.48 18.496l80.384 80.384c24.64 24.512 24.64 64.512 0.064 89.088zM784.96-61.632l-160.96 160.96 78.912 78.976 147.072-147.072 14.592-13.248-79.616-79.616zM658.688 296.832c72.64-22.016 154.432-1.92 208.448 52.16 59.2 59.136 77.312 147.584 46.336 225.344l-18.112 45.12-144.512-144.512c-7.552-7.488-20.352-7.424-27.84 0l-25.536 25.536c-7.68 7.68-7.68 20.16 0 27.84l144.576 144.512-45.12 17.984c-76.352 30.528-166.976 12.032-225.344-46.272-55.168-55.168-74.56-134.912-52.224-208.384l-153.344-153.344c-72.32 22.016-154.304 1.92-208.384-52.16-59.136-59.136-77.312-147.584-46.272-225.344l17.984-45.12 144.512 144.576c7.36 7.296 20.416 7.424 27.84 0l25.6-25.664c3.712-3.712 5.696-8.576 5.76-13.824 0-5.248-2.048-10.176-5.76-13.952l-144.448-144.448 45.056-17.984c24.768-9.92 50.88-14.912 77.632-14.912 55.808 0 108.224 21.696 147.712 61.184 55.168 55.104 74.624 134.912 52.16 208.384l153.28 153.28zM438.912 139.328c23.104-54.656 10.944-117.056-30.976-158.912-27.648-27.648-64-41.92-103.616-42.432l68.16 68.096c15.808 15.808 24.512 36.864 24.512 59.264s-8.768 43.328-24.512 59.072l-25.6 25.6c-31.68 31.68-86.72 31.552-118.336 0l-68.16-68.16c-0.256 38.144 14.464 75.584 42.496 103.552 41.216 41.216 105.472 53.504 158.976 30.976l19.84-8.384 212.544 212.48-8.384 19.84c-23.104 54.72-10.944 117.12 30.976 158.976 27.392 27.328 63.744 42.432 102.528 42.432 0.384 0 0.768 0 1.088 0l-68.096-68.096c-32.64-32.64-32.64-85.696 0-118.336l25.536-25.536c31.616-31.552 86.656-31.68 118.336 0l68.224 68.16c0.256-38.144-14.528-75.648-42.496-103.616-41.152-41.152-105.408-53.44-158.976-30.976l-19.84 8.384-212.48-212.544 8.256-19.84z" transform="translate(0, 812) scale(1, -1)"/>
</svg>
