<?xml version="1.0" encoding="utf-8"?>
<!DOCTYPE svg PUBLIC "-//W3C//DTD SVG 1.1//EN" "http://www.w3.org/Graphics/SVG/1.1/DTD/svg11.dtd">
<svg version="1.1" id="图形" xmlns="http://www.w3.org/2000/svg" xmlns:xlink="http://www.w3.org/1999/xlink" x="0px" y="0px" width="1024px" height="1024px" viewBox="0 0 1024 1024" enable-background="new 0 0 1024 1024" xml:space="preserve">
  <path fill="#ffffff" d="M1011.03616 187.27808c0 109.30176-94.74048 204.04224-204.04224 204.04224s-204.04224-94.74048-204.04224-204.04224c0-72.86784 36.43392-131.1744 87.4496-174.87872-50.9952-14.58176-116.59264-21.85216-196.75136-21.85216l0 0 0 0c-240.47616 0-364.3392 87.4496-364.3392 87.4496-21.87264 14.58176-43.7248 7.29088-58.30656-7.29088-14.56128-21.85216-7.29088-43.7248 7.29088-58.28608 7.29088 0 145.73568-102.01088 415.35488-102.01088l0 0 0 0c233.18528 0 364.3392 72.86784 408.064 94.72C967.31136 41.5424 1011.03616 114.41024 1011.03616 187.27808zM806.99392 70.68544c-65.57696 0-116.59264 51.01568-116.59264 116.59264 0 65.57696 50.9952 116.59264 116.59264 116.59264 65.57696 0 116.59264-51.01568 116.59264-116.59264 0-43.7248-21.87264-80.15872-50.9952-102.01088 0 0-7.29088 0-7.29088-7.29088l0 0C843.42784 77.97632 828.84608 70.68544 806.99392 70.68544zM260.46464 201.85984c109.30176 0 204.04224 94.72 204.04224 204.04224 0 72.86784-36.43392 131.1744-87.4496 174.87872 50.9952 14.58176 116.59264 21.85216 196.75136 21.85216l0 0 0 0c240.47616 0 364.3392-87.4496 364.3392-87.4496 7.29088-7.29088 14.56128-7.29088 21.87264-7.29088 14.56128 0 29.14304 7.29088 36.43392 21.85216 14.56128 21.85216 7.29088 43.7248-7.29088 58.28608-7.29088 0-145.73568 102.01088-415.35488 102.01088l0 0 0 0c-233.18528 0-364.3392-72.86784-408.064-94.74048-65.57696-36.43392-109.30176-102.01088-109.30176-182.1696C56.44288 296.57984 151.16288 201.85984 260.46464 201.85984zM260.46464 529.76512c65.57696 0 116.59264-51.01568 116.59264-116.59264 0-65.57696-50.9952-116.59264-116.59264-116.59264s-116.59264 51.01568-116.59264 116.59264c0 43.7248 21.87264 80.15872 50.9952 102.01088 0 0 7.29088 0 7.29088 7.29088l0 0C224.03072 522.47424 245.90336 529.76512 260.46464 529.76512z" transform="translate(0, 812) scale(1, -1)"/>
</svg>
