<?xml version="1.0" encoding="utf-8"?>
<!DOCTYPE svg PUBLIC "-//W3C//DTD SVG 1.1//EN" "http://www.w3.org/Graphics/SVG/1.1/DTD/svg11.dtd">
<svg version="1.1" id="图形" xmlns="http://www.w3.org/2000/svg" xmlns:xlink="http://www.w3.org/1999/xlink" x="0px" y="0px" width="1024px" height="1024px" viewBox="0 0 1024 1024" enable-background="new 0 0 1024 1024" xml:space="preserve">
  <path fill="#ffffff" d="M864.385024 370.207c-13.756416 28.932-1.056768 54.763-5.289984 50.634-4.238336-4.134-5.289984-2.065-31.746048-13.435-26.456064-11.364-82.538496 2.064-82.538496 2.064l-26.45504-10.333c-70.90176-20.669-105.818112 0-105.818112 0 43.383808 42.367 110.045184 14.466 110.045184 14.466s11.636736 1.032 15.87712 8.263c4.232192 7.236-10.587136 51.671-70.89664 59.939-105.673728 14.476-140.73856-23.767-140.73856-23.767l-38.093824 0c-44.444672 33.062-120.631296 29.964-120.631296 29.964 3.745792-18.73 4.228096-14.466 4.228096-14.466 30.6944-54.768 93.123584-63.036 93.123584-63.036-49.731584-7.235-73.015296 9.305-73.015296 9.305-37.036032 18.601-51.849216 81.635-51.849216 81.635 65.605632 22.734 174.599168-21.701 174.599168-21.701 40.21248 39.27 168.252416 21.701 168.252416 21.701-87.8336 158.111-311.110656 121.943-311.110656 121.943 43.392-13.433 67.729408-47.538 67.725312-47.532-298.406912 6.199-279.359488-324.483-279.359488-324.483 4.227072 21.696 76.184576 93.004 113.220608 96.102 37.036032 3.102 24.336384-24.803 24.336384-24.803-104.4736-115.65-34.922496-263.508-34.922496-263.508 33.864704 95.076 140.73856 110.573 140.73856 110.573-17.983488-74.403 70.900736-202.541 70.900736-202.541-8.455168 91.964 77.252608 151.902 77.252608 151.902-88.374272 22.665-105.965568 119.604-109.30688 149.373 6.46656-36.214 54.00576-111.208 133.644288-123.537 86.774784-13.435 106.872832 21.701 146.02752 12.396 39.155712-9.295 4.23936-58.902 4.23936-58.902 110.045184 8.273 102.63552 129.179 102.63552 129.179-116.39296-111.605-141.792256 0-141.792256 0 0 61.999 67.726336 89.898 108.993536 89.898 41.263104 0 46.555136-36.168 46.555136-36.168C853.805056 288.571 878.14144 341.269 864.385024 370.207z" transform="translate(0, 812) scale(1, -1)"/>
</svg>
