<?xml version="1.0" encoding="utf-8"?>
<!DOCTYPE svg PUBLIC "-//W3C//DTD SVG 1.1//EN" "http://www.w3.org/Graphics/SVG/1.1/DTD/svg11.dtd">
<svg version="1.1" id="图形" xmlns="http://www.w3.org/2000/svg" xmlns:xlink="http://www.w3.org/1999/xlink" x="0px" y="0px" width="1024px" height="1024px" viewBox="0 0 1024 1024" enable-background="new 0 0 1024 1024" xml:space="preserve">
  <path fill="#ffffff" d="M143.36-5.152q63.488 19.456 126.976 29.696l0 424.96q-63.488 10.24-126.976 29.696l0 159.744q93.184-27.648 180.736-39.936t185.856-12.288q104.448 0 197.12 13.824t192 45.568l0-159.744q-34.816-11.264-69.12-19.968t-70.144-15.872l0-427.008q35.84-7.168 70.144-15.872t69.12-19.968l0-159.744q-99.328 31.744-192 45.568t-197.12 13.824q-98.304 0-185.856-12.288t-180.736-39.936l0 159.744zM509.952 45.024q13.312 0 34.816-0.512t33.792-0.512l0 386.048-68.608 0-59.392 0 0-386.048q11.264 0 30.208 0.512t29.184 0.512z" transform="translate(0, 812) scale(1, -1)"/>
</svg>
