<?xml version="1.0" encoding="utf-8"?>
<!DOCTYPE svg PUBLIC "-//W3C//DTD SVG 1.1//EN" "http://www.w3.org/Graphics/SVG/1.1/DTD/svg11.dtd">
<svg version="1.1" id="图形" xmlns="http://www.w3.org/2000/svg" xmlns:xlink="http://www.w3.org/1999/xlink" x="0px" y="0px" width="1024px" height="1024px" viewBox="0 0 1024 1024" enable-background="new 0 0 1024 1024" xml:space="preserve">
  <path fill="#FFFFFF" d="M188.722734 298.961344c0 0-3.227508 185.066973 184.734398 282.902208 33.477462 15.448854 208.570269 72.082712 368.20092-66.953901-30.896684-36.041868-90.12667-123.589806-90.12667-123.589806l306.406528 0L957.93791 700.292825l-121.009028-87.532589c0 0-112.092961 121.008005-325.112566 123.588783C298.793642 738.928774 69.630359 543.889683 64.486198 298.961344 136.58426 298.644119 188.722734 298.961344 188.722734 298.961344zM833.699328 303.667529c0 0 3.228531-185.065949-184.732351-282.901185-33.478486-15.449877-208.570269-72.082712-368.201943 66.954925 30.897707 36.041868 90.12667 123.586736 90.12667 123.586736L64.486198 211.308005l0-308.971957 121.008005 87.533612c0 0 112.091938-121.009028 325.113589-123.587759 213.020628-2.580778 442.183911 192.456267 447.329095 437.385629C885.838825 303.983731 833.699328 303.667529 833.699328 303.667529z" transform="translate(0, 812) scale(1, -1)"/>
</svg>
