<?xml version="1.0" encoding="utf-8"?>
<!DOCTYPE svg PUBLIC "-//W3C//DTD SVG 1.1//EN" "http://www.w3.org/Graphics/SVG/1.1/DTD/svg11.dtd">
<svg version="1.1" id="图形" xmlns="http://www.w3.org/2000/svg" xmlns:xlink="http://www.w3.org/1999/xlink" x="0px" y="0px" width="1024px" height="1024px" viewBox="0 0 1024 1024" enable-background="new 0 0 1024 1024" xml:space="preserve">
  <path fill="#ffffff" d="M631.275547 426.69861 545.784454 631.271846c-1.019213 2.035356-2.417049 4.578272-4.198625 7.632841-1.780553 3.054569-3.944845 6.107091-6.489808 9.15859-2.544963 3.054569-5.725398 5.725398-9.541307 8.015557-3.815909 2.290159-8.270361 3.435239-13.360286 3.435239-9.66922 0-17.302061-2.925632-22.898523-8.778944-5.599532-5.852288-9.923-12.848633-12.977569-20.99108l-87.783299-204.572212-235.871055-21.367657c-5.597485-1.017166-10.685363-3.561106-15.265682-7.633864-4.578272-4.071735-7.378038-9.668197-8.395204-16.794501-1.01819-7.125281 0.63445-14.121626 4.959965-20.99108 4.325515-6.871501 9.541307-13.105482 15.648398-18.701944 0.509606-0.50756 3.309372-2.924609 8.397251-7.251148 5.087878-4.326539 11.576663-9.92607 19.465331-16.794501 7.888667-6.870478 16.792455-14.502295 26.715455-22.900569 9.924024-8.394181 19.973914-16.919345 30.151717-25.571399 0.49528-0.420579 167.236885 49.127907 173.386956 52.253084 0 0.011256-0.001023 0.023536-0.001023 0.034792 0 19.108197 11.473309 35.939537 27.801183 43.878346 6.414083 3.15383 13.58439 4.935406 21.10876 4.935406 26.556842 0 48.717561-22.160719 48.717561-48.717561 0-8.322549-2.177596-16.21224-5.984295-23.124673 2.411933-2.823302 93.683682-102.280478 94.54019-103.219873 4.475941 1.799996 9.330506 2.811022 14.387685 2.811022 0.682545 0 1.360997-0.019443 2.034333-0.054235 1.680269 3.952009 122.498962 218.611973 123.587759 221.103724L631.275547 426.69861zM888.521422 395.401814c-4.072759 3.562129-11.19804 6.616698-21.37482 9.159614l-96.964402 9.101285c-0.674359-1.442862-128.300085-229.478462-130.585127-232.710063-0.063445-0.130983-0.113587-0.26913-0.180102-0.399089 5.193279-6.682189 8.319479-15.015995 8.319479-23.976064 0-21.49864-17.939581-39.438221-39.438221-39.438221s-39.438221 17.939581-39.438221 39.438221c0 4.572132 0.818645 8.980535 2.304486 13.09218-0.36532 0.763386-94.776573 102.459556-96.722902 104.615663-5.592368-2.278903-11.667737-3.551896-17.999956-3.551896-15.325034 0-29.17753 7.389294-38.160111 18.735713l-153.373133-48.420803c0 0 32.478715-27.906583 50.343595-43.349297-9.66922-39.692001-18.320251-75.315336-25.954115-106.866936-3.562129-13.739932-6.995321-27.226085-10.304693-40.455387-3.307326-13.230326-6.235005-25.316595-8.776897-36.260855-2.545986-10.940167-4.837168-20.355607-6.871501-28.244274-2.035356-7.886621-3.308349-12.847609-3.816932-14.883989-1.01819-4.581342-0.509606-9.033747 1.526773-13.361309 2.035356-4.324492 5.215792-8.014534 9.541307-11.067057 4.326539-3.054569 9.16166-4.960988 14.502295-5.725398 5.343705-0.763386 10.56052 0.127913 15.648398 2.670829 2.543939 1.017166 7.506974 3.561106 14.886035 7.632841 7.377014 4.071735 16.155958 9.163707 26.332738 15.269775 10.178827 6.105045 21.50171 12.719696 33.968649 19.844977s25.061792 14.246469 37.785581 21.372773c29.517267 16.791431 62.340837 35.874045 98.469686 57.248865l199.22953-116.02348c2.542916-1.017166 6.235005-2.420119 11.069103-4.197602 4.832052-1.782599 8.525164-2.673899 11.067057-2.673899 7.634888 0 14.504342 1.65264 20.612457 4.959965 6.108115 3.309372 8.397251 10.050913 6.870478 20.22667-0.51063 2.036379-1.527796 6.998391-3.054569 14.887059-1.527796 7.886621-3.434216 17.429974-5.726421 28.624944-2.291183 11.195993-4.709255 23.662933-7.252171 37.403888-2.541893 13.741979-5.341658 27.479865-8.394181 41.218774-6.616698 32.570813-14.248516 68.955488-22.899546 109.156072l158.016897 141.986805c6.617721 7.632841 12.08627 14.121626 16.411785 19.464307 4.326539 5.340635 6.487761 11.574616 6.487761 18.701944C894.628514 386.243223 892.592135 391.839685 888.521422 395.401814zM234.874355 267.755622c-0.233314-0.071631-0.367367-0.113587-0.367367-0.113587S234.641041 267.68399 234.874355 267.755622z" transform="translate(0, 812) scale(1, -1)"/>
</svg>
